<?xml version="1.0" standalone="no"?>
<!DOCTYPE svg PUBLIC "-//W3C//DTD SVG 20010904//EN"
 "http://www.w3.org/TR/2001/REC-SVG-20010904/DTD/svg10.dtd">
<svg version="1.0" xmlns="http://www.w3.org/2000/svg"
 width="800.000000pt" height="800.000000pt" viewBox="0 0 800.000000 800.000000"
 preserveAspectRatio="xMidYMid meet">
<metadata>
Created by potrace 1.11, written by Peter Selinger 2001-2013
</metadata>
<g transform="translate(0.000000,800.000000) scale(0.100000,-0.100000)"
fill="#000000" stroke="none">
<path d="M3375 7470 c-464 -120 -1029 -404 -1420 -714 -187 -148 -440 -392
-576 -556 -578 -694 -782 -1482 -525 -2025 203 -429 564 -665 1017 -665 161 0
283 30 473 117 424 195 756 513 969 930 102 200 147 363 147 530 0 260 -126
442 -337 489 -174 38 -495 -21 -530 -98 -27 -60 32 -89 133 -67 97 21 239 16
302 -11 108 -46 153 -131 160 -296 7 -180 -24 -309 -128 -519 -165 -337 -407
-615 -653 -750 -391 -215 -874 -143 -1097 164 -200 275 -239 595 -124 1031
147 559 453 1030 974 1499 520 468 1180 775 1755 816 306 22 613 -104 714
-294 91 -172 84 -479 -21 -844 -109 -381 -260 -713 -540 -1182 -513 -862 -746
-1398 -788 -1810 -37 -367 127 -636 442 -725 211 -60 472 -24 715 98 379 192
776 629 1096 1207 37 66 67 113 67 105 0 -29 -209 -638 -320 -935 -139 -372
-329 -853 -339 -859 -4 -3 -151 -10 -327 -16 -805 -27 -1389 -114 -1874 -278
-637 -217 -947 -496 -898 -810 13 -83 40 -135 105 -203 143 -151 378 -234 729
-260 294 -21 579 34 969 188 455 180 861 448 1190 784 129 132 259 287 302
360 l17 29 111 0 c146 0 558 18 715 30 317 26 469 58 615 129 168 81 248 152
318 282 75 139 84 233 34 343 -22 47 -30 56 -51 56 -34 0 -55 -35 -55 -90 1
-74 -46 -179 -114 -257 -48 -55 -161 -129 -247 -163 -180 -69 -399 -98 -850
-114 -190 -6 -346 -11 -347 -11 -1 1 35 77 82 170 170 345 317 719 498 1270
223 678 365 1215 422 1592 48 320 -19 441 -200 354 -112 -53 -127 -75 -195
-286 -119 -364 -240 -658 -421 -1015 -274 -543 -523 -918 -773 -1165 -255
-252 -537 -389 -731 -357 -114 19 -184 77 -228 189 -26 66 -30 133 -17 259 40
393 327 1054 858 1974 262 456 385 748 452 1080 72 358 49 611 -80 858 -99
191 -283 340 -515 415 -168 55 -183 57 -580 56 l-370 0 -110 -29z m1416 -5629
c-255 -374 -683 -710 -1165 -910 -292 -122 -562 -175 -886 -175 -207 0 -291
14 -394 62 -244 116 -189 313 149 539 522 349 1232 521 2238 541 l98 2 -40
-59z"/>
<path d="M6784 5933 c-61 -18 -136 -73 -176 -129 -23 -31 -33 -61 -41 -117
-11 -74 -10 -77 19 -133 41 -80 94 -117 177 -122 39 -2 78 2 105 11 42 15 43
15 36 -7 -17 -59 -66 -147 -108 -193 -62 -69 -123 -112 -232 -167 -94 -46
-107 -57 -118 -92 -9 -29 17 -54 54 -54 42 0 191 66 278 123 112 72 241 206
280 288 117 246 57 541 -121 594 -61 18 -87 18 -153 -2z"/>
</g>
</svg>
